<?xml version="1.0" encoding="UTF-8"?>
<!DOCTYPE svg PUBLIC "-//W3C//DTD SVG 1.1//EN" "http://www.w3.org/Graphics/SVG/1.1/DTD/svg11.dtd">
<!-- Creator: CorelDRAW X6 -->
<svg xmlns="http://www.w3.org/2000/svg" xml:space="preserve" width="297mm" height="210mm" version="1.1" style="shape-rendering:geometricPrecision; text-rendering:geometricPrecision; image-rendering:optimizeQuality; fill-rule:evenodd; clip-rule:evenodd"
viewBox="0 0 29700 21000"
 xmlns:xlink="http://www.w3.org/1999/xlink">
 <defs>
  <style type="text/css">
   <![CDATA[
    .fil0 {fill:none}
    .fil12 {fill:#FEFEFE}
    .fil13 {fill:url(#id0)}
    .fil14 {fill:url(#id1)}
    .fil16 {fill:url(#id2);fill-rule:nonzero}
    .fil15 {fill:url(#id3);fill-rule:nonzero}
    .fil7 {fill:url(#id4);fill-rule:nonzero}
    .fil8 {fill:url(#id5);fill-rule:nonzero}
    .fil9 {fill:url(#id6);fill-rule:nonzero}
    .fil10 {fill:url(#id7);fill-rule:nonzero}
    .fil11 {fill:url(#id8);fill-rule:nonzero}
    .fil6 {fill:url(#id9);fill-rule:nonzero}
    .fil5 {fill:url(#id10);fill-rule:nonzero}
    .fil4 {fill:url(#id11);fill-rule:nonzero}
    .fil3 {fill:url(#id12);fill-rule:nonzero}
    .fil2 {fill:url(#id13);fill-rule:nonzero}
    .fil1 {fill:url(#id14);fill-rule:nonzero}
   ]]>
  </style>
  <linearGradient id="id0" gradientUnits="userSpaceOnUse" x1="7782.66" y1="10553.4" x2="19952.1" y2="12258.1">
   <stop offset="0" style="stop-color:#033B86"/>
   <stop offset="1" style="stop-color:#00A0E3"/>
  </linearGradient>
  <linearGradient id="id1" gradientUnits="userSpaceOnUse" x1="8355.26" y1="11029.8" x2="19336.1" y2="14153.3">
   <stop offset="0" style="stop-color:#1F5000"/>
   <stop offset="1" style="stop-color:#8DB217"/>
  </linearGradient>
  <linearGradient id="id2" gradientUnits="userSpaceOnUse" xlink:href="#id0" x1="14850" y1="16851" x2="14850" y2="14710">
  </linearGradient>
  <radialGradient id="id3" gradientUnits="objectBoundingBox" cx="7.99974%" cy="42.0001%" r="50%" fx="7.99974%" fy="42.0001%">
   <stop offset="0" style="stop-color:#FEE493"/>
   <stop offset="0.501961" style="stop-color:#FBBA00"/>
   <stop offset="1" style="stop-color:#EF7F1A"/>
  </radialGradient>
  <radialGradient id="id4" gradientUnits="objectBoundingBox" cx="-0.00163669%" cy="2.00001%" r="50.0001%" fx="-0.00163669%" fy="2.00001%">
   <stop offset="0" style="stop-color:#FEE493"/>
   <stop offset="0" style="stop-color:#FEE493"/>
   <stop offset="0.501961" style="stop-color:#FBBA00"/>
   <stop offset="1" style="stop-color:#EF7F1A"/>
  </radialGradient>
  <radialGradient id="id5" gradientUnits="objectBoundingBox" xlink:href="#id4" cx="0.999754%" cy="2.00021%" r="50.0001%" fx="0.999754%" fy="2.00021%">
  </radialGradient>
  <radialGradient id="id6" gradientUnits="objectBoundingBox" xlink:href="#id4" cx="1.99992%" cy="2.00007%" r="50%" fx="1.99992%" fy="2.00007%">
  </radialGradient>
  <radialGradient id="id7" gradientUnits="objectBoundingBox" xlink:href="#id4" cx="2.00021%" cy="2.00014%" r="50.0001%" fx="2.00021%" fy="2.00014%">
  </radialGradient>
  <radialGradient id="id8" gradientUnits="objectBoundingBox" xlink:href="#id3" cx="2.00012%" cy="1.99993%" r="50.0001%" fx="2.00012%" fy="1.99993%">
  </radialGradient>
  <radialGradient id="id9" gradientUnits="objectBoundingBox" xlink:href="#id4" cx="98%" cy="1.99863%" r="50.0001%" fx="98%" fy="1.99863%">
  </radialGradient>
  <radialGradient id="id10" gradientUnits="objectBoundingBox" xlink:href="#id4" cx="97.9998%" cy="2.00036%" r="50.0001%" fx="97.9998%" fy="2.00036%">
  </radialGradient>
  <radialGradient id="id11" gradientUnits="objectBoundingBox" xlink:href="#id4" cx="98%" cy="2%" r="50%" fx="98%" fy="2%">
  </radialGradient>
  <radialGradient id="id12" gradientUnits="objectBoundingBox" xlink:href="#id4" cx="98.0001%" cy="2.00013%" r="50.0001%" fx="98.0001%" fy="2.00013%">
  </radialGradient>
  <radialGradient id="id13" gradientUnits="objectBoundingBox" xlink:href="#id4" cx="98%" cy="2.00004%" r="50.0001%" fx="98%" fy="2.00004%">
  </radialGradient>
  <radialGradient id="id14" gradientUnits="objectBoundingBox" xlink:href="#id4" cx="98.9994%" cy="2.00005%" r="50%" fx="98.9994%" fy="2.00005%">
  </radialGradient>
 </defs>
 <g id="Layer_x0020_1">
  <metadata id="CorelCorpID_0Corel-Layer"/>
  <rect class="fil0" width="29700" height="21000"/>
  <g id="_425128136">
   <g>
    <g>
     <polygon class="fil1" points="18256,8768 18744,8876 19253,4171 "/>
     <polygon class="fil2" points="18965,8953 19411,9178 21074,4749 "/>
     <polygon class="fil3" points="19710,9397 20073,9741 22927,5966 "/>
     <polygon class="fil4" points="20391,9994 20649,10421 24404,7540 "/>
     <polygon class="fil5" points="20837,10708 20980,11187 25336,9337 "/>
     <polygon class="fil6" points="21041,11486 21046,11985 25744,11417 "/>
     <polygon class="fil7" points="17821,8768 17326,8835 17210,4104 "/>
     <polygon class="fil8" points="17001,8893 16538,9081 15249,4528 "/>
     <polygon class="fil9" points="16227,9247 15836,9559 13307,5560 "/>
     <polygon class="fil10" points="15569,9795 15276,10200 11775,7016 "/>
     <polygon class="fil11" points="15109,10503 14926,10968 10740,8762 "/>
    </g>
    <path class="fil12" d="M14885 11003c375,-1361 1612,-2304 3024,-2304 1732,0 3136,1404 3136,3136 0,219 -23,438 -69,652l-45 214 -218 -3c-961,-15 -1939,-49 -2878,-268 -988,-230 -1912,-663 -2814,-1119l-194 -98 58 -209z"/>
    <path class="fil13" d="M3978 12807c9688,-7163 10774,2614 19779,-969 -9339,5329 -9460,-5204 -19779,969z"/>
    <path class="fil14" d="M3956 13217c10198,-5980 10166,3960 19779,-969 -9773,5698 -9156,-4314 -19779,969z"/>
    <path class="fil15" d="M15141 11074c343,-1246 1476,-2109 2768,-2109 1586,0 2871,1285 2871,2871 0,201 -21,401 -63,597 -2429,-38 -3349,-233 -5576,-1359z"/>
   </g>
   <path class="fil16" d="M6126 14665l0 737 -58 0c-19,-142 -53,-254 -101,-338 -49,-84 -119,-150 -209,-200 -90,-49 -183,-74 -280,-74 -109,0 -200,33 -271,100 -71,67 -107,143 -107,227 0,65 23,124 68,178 65,78 220,183 464,314 200,107 336,189 409,246 73,57 129,124 168,202 39,78 59,159 59,244 0,161 -63,300 -188,417 -126,117 -287,175 -484,175 -62,0 -120,-5 -175,-14 -33,-5 -100,-25 -202,-58 -102,-33 -167,-50 -194,-50 -26,0 -47,8 -62,24 -15,16 -26,49 -34,99l-58 0 0 -731 58 0c27,153 64,268 110,343 46,76 117,139 212,189 95,50 199,76 312,76 131,0 235,-35 311,-104 76,-70 114,-152 114,-246 0,-53 -14,-106 -43,-159 -29,-54 -73,-104 -134,-150 -41,-32 -153,-98 -336,-200 -183,-101 -313,-183 -390,-244 -77,-61 -136,-128 -176,-201 -40,-73 -60,-154 -60,-242 0,-153 59,-285 176,-395 117,-110 268,-166 449,-166 114,0 234,28 361,83 59,26 100,39 124,39 27,0 50,-8 67,-24 17,-17 31,-49 42,-98l58 0zm1787 1471l-827 0 -143 334c-35,83 -54,145 -54,186 0,32 16,61 47,86 31,24 98,40 200,48l0 58 -673 0 0 -58c89,-16 146,-36 173,-61 54,-50 113,-153 178,-307l750 -1756 53 0 742 1775c60,143 114,235 163,278 49,42 116,66 204,71l0 58 -841 0 0 -58c85,-4 142,-18 172,-42 30,-24 45,-54 45,-89 0,-46 -21,-119 -63,-219l-126 -304zm-48 -116l-359 -861 -369 861 728 0zm2214 827l-824 -1795 0 1425c0,131 14,213 43,246 39,44 101,66 187,66l76 0 0 58 -750 0 0 -58 77 0c91,0 156,-27 194,-82 23,-34 35,-110 35,-230l0 -1393c0,-94 -11,-163 -32,-205 -15,-31 -42,-56 -82,-77 -40,-20 -104,-31 -192,-31l0 -58 611 0 769 1668 762 -1668 606 0 0 58 -75 0c-93,0 -158,27 -196,82 -23,34 -35,110 -35,230l0 1393c0,131 15,213 45,246 39,44 101,66 187,66l75 0 0 58 -914 0 0 -58 77 0c92,0 157,-27 194,-82 23,-34 35,-110 35,-230l0 -1425 -821 1795 -51 0zm3084 -2076l0 -58 750 0 0 58 -80 0c-84,0 -148,35 -193,105 -22,33 -33,108 -33,226l0 865c0,214 -21,380 -63,498 -42,118 -126,219 -250,304 -124,84 -292,127 -506,127 -232,0 -409,-40 -529,-121 -121,-80 -206,-189 -256,-326 -34,-93 -50,-268 -50,-525l0 -834c0,-131 -18,-217 -54,-257 -36,-41 -94,-61 -175,-61l-80 0 0 -58 920 0 0 58 -82 0c-88,0 -151,28 -188,83 -26,38 -39,116 -39,235l0 930c0,83 8,178 23,285 16,107 43,190 83,250 40,60 98,109 172,148 75,39 167,58 276,58 139,0 264,-31 374,-91 110,-61 185,-139 225,-233 40,-95 61,-256 61,-482l0 -864c0,-133 -14,-216 -44,-249 -41,-46 -101,-69 -182,-69l-80 0zm840 2076l0 -58 80 0c90,0 154,-29 191,-86 23,-34 34,-112 34,-232l0 -1381c0,-133 -14,-216 -44,-249 -41,-46 -101,-69 -182,-69l-80 0 0 -58 867 0c319,0 561,36 727,108 166,72 300,193 401,362 101,169 152,364 152,585 0,297 -90,545 -270,744 -202,223 -510,334 -924,334l-952 0zm608 -157c133,30 244,44 334,44 242,0 444,-85 604,-256 160,-171 240,-402 240,-695 0,-294 -80,-527 -240,-696 -160,-170 -366,-255 -617,-255 -94,0 -201,15 -321,46l0 1812zm3136 -555l-827 0 -143 334c-35,83 -54,145 -54,186 0,32 16,61 47,86 31,24 98,40 200,48l0 58 -673 0 0 -58c89,-16 146,-36 173,-61 54,-50 113,-153 178,-307l750 -1756 53 0 742 1775c60,143 114,235 163,278 49,42 116,66 204,71l0 58 -841 0 0 -58c85,-4 142,-18 172,-42 30,-24 45,-54 45,-89 0,-46 -21,-119 -63,-219l-126 -304zm-48 -116l-359 -861 -369 861 728 0zm2140 -1307l744 0 0 58 -41 0c-27,0 -67,12 -120,36 -53,24 -100,59 -143,104 -43,45 -95,119 -158,221l-513 801 0 543c0,131 15,213 45,246 40,44 104,66 191,66l70 0 0 58 -914 0 0 -58 77 0c91,0 156,-27 194,-82 23,-34 35,-110 35,-230l0 -499 -584 -902c-69,-104 -116,-169 -141,-195 -25,-26 -76,-57 -153,-94 -21,-10 -51,-16 -91,-16l0 -58 910 0 0 58 -47 0c-49,0 -95,12 -136,35 -41,23 -62,57 -62,104 0,38 32,106 97,205l441 688 421 -658c63,-99 94,-172 94,-220 0,-30 -8,-56 -23,-79 -16,-23 -37,-41 -65,-54 -28,-13 -71,-20 -127,-20l0 -58zm1905 1422l-827 0 -143 334c-35,83 -54,145 -54,186 0,32 16,61 47,86 31,24 98,40 200,48l0 58 -673 0 0 -58c89,-16 146,-36 173,-61 54,-50 113,-153 178,-307l750 -1756 53 0 742 1775c60,143 114,235 163,278 49,42 116,66 204,71l0 58 -841 0 0 -58c85,-4 142,-18 172,-42 30,-24 45,-54 45,-89 0,-46 -21,-119 -63,-219l-126 -304zm-48 -116l-359 -861 -369 861 728 0zm1561 -315l988 0 0 -615c0,-108 -7,-180 -20,-214 -11,-26 -33,-48 -67,-67 -45,-25 -93,-38 -143,-38l-76 0 0 -58 914 0 0 58 -76 0c-50,0 -98,12 -143,36 -34,17 -57,42 -69,76 -12,34 -18,103 -18,207l0 1381c0,108 7,179 20,213 11,26 32,49 65,68 46,25 94,38 145,38l76 0 0 58 -914 0 0 -58 76 0c87,0 151,-26 191,-77 26,-34 39,-114 39,-242l0 -650 -988 0 0 650c0,108 7,179 20,213 10,26 32,49 66,68 45,25 92,38 143,38l77 0 0 58 -914 0 0 -58 76 0c88,0 152,-26 193,-77 25,-34 38,-114 38,-242l0 -1381c0,-108 -7,-180 -20,-214 -11,-26 -32,-48 -65,-67 -46,-25 -94,-38 -145,-38l-76 0 0 -58 914 0 0 58 -77 0c-50,0 -98,12 -143,36 -33,17 -55,42 -68,76 -12,34 -19,103 -19,207l0 615z"/>
  </g>
 </g>
</svg>
