<svg height="512" viewBox="0 0 64 64" width="512" xmlns="http://www.w3.org/2000/svg"><g id="Analysis-Stats-Mobile_Phone-Computer-Software" data-name="Analysis-Stats-Mobile Phone-Computer-Software"><rect fill="#c6c5ca" height="40" rx="1" width="54" x="3" y="7"/><rect fill="#5aaae7" height="28" rx="1" width="46" x="7" y="11"/><path d="m46 11h2v28h-2z" fill="#3d9ae2"/><path d="m38 55h-16l1-8h14z" fill="#c6c5ca"/><rect fill="#acabb1" height="6" rx="1" width="28" x="16" y="55"/><path d="m37.25 49h-14.5l.25-2h14z" fill="#acabb1"/><path d="m53 53v4a4 4 0 0 1 -4 4h-14a4 4 0 0 1 -4-4v-4z" fill="#c6c5ca"/><path d="m46 4v35h-32v-35a1 1 0 0 1 1-1h30a1 1 0 0 1 1 1z" fill="#e6e7e8"/><path d="m55 31v16h-22v-16a4 4 0 0 1 4-4h14a4 4 0 0 1 4 4z" fill="#acabb1"/><path d="m31 29h22v24h-22z" fill="#5aaae7"/><path d="m43 35a6 6 0 0 0 -6 6 6.009 6.009 0 0 0 6 6 6 6 0 0 0 0-12z" fill="#3d9ae2"/><path d="m41 33v6l-4.24 4.24a5.944 5.944 0 0 1 -1.76-4.24 6 6 0 0 1 6-6z" fill="#ff9811"/><path d="m41 39h6a6 6 0 0 1 -6 6 5.944 5.944 0 0 1 -4.24-1.76z" fill="#ff5023"/><path d="m47 39h-6v-6a6 6 0 0 1 6 6z" fill="#3d9ae2"/><path d="m53 29h-22a4 4 0 0 1 4-4h14a4 4 0 0 1 4 4z" fill="#c6c5ca"/><path d="m38 9a6 6 0 0 0 -6 6 6.009 6.009 0 0 0 6 6 6 6 0 0 0 0-12z" fill="#d8d7da"/><path d="m42 13h-6v-6a6 6 0 0 1 6 6z" fill="#3d9ae2"/><path d="m36 7v6l-4.24 4.24a5.944 5.944 0 0 1 -1.76-4.24 6 6 0 0 1 6-6z" fill="#ff9811"/><path d="m36 13h6a6 6 0 0 1 -6 6 5.944 5.944 0 0 1 -4.24-1.76z" fill="#ff5023"/><path d="m46 7h2v4h-2z" fill="#acabb1"/><path d="m53 51a2.006 2.006 0 0 0 -2 2h2z" fill="#3d9ae2"/><path d="m51 48a2.015 2.015 0 0 0 -2-2 2.006 2.006 0 0 0 -2 2v5h4z" fill="#3d9ae2"/><path d="m51 53h-4v5l-1.73-3-.27-.46a2 2 0 0 0 -1.74-1.01 2.013 2.013 0 0 0 -1.72 3.01l2.57 4.46h4.89a4 4 0 0 0 4-4v-4z" fill="#acabb1"/><path d="m49 51a2.006 2.006 0 0 1 2-2 2.015 2.015 0 0 1 2 2v1a2.006 2.006 0 0 1 2-2 2.015 2.015 0 0 1 2 2v1a2.006 2.006 0 0 1 2-2 2.015 2.015 0 0 1 2 2v9h-17.15l-.65-1.12-3.66-6.34a2.005 2.005 0 0 1 1.72-3.01 2 2 0 0 1 1.74 1.01l.27.46 1.73 3v-10a2.006 2.006 0 0 1 2-2 2.015 2.015 0 0 1 2 2z" fill="#ffc477"/><g fill="#bcbec0"><path d="m17 17h10v2h-10z"/><path d="m17 13h10v2h-10z"/><path d="m17 9h2v2h-2z"/><path d="m21 9h6v2h-6z"/><path d="m17 33h10v2h-10z"/><path d="m17 29h10v2h-10z"/><path d="m17 25h2v2h-2z"/><path d="m21 25h6v2h-6z"/></g><rect fill="#ffb655" height="5" rx="1" width="2" x="48" y="50"/><rect fill="#ffb655" height="4" rx="1" width="2" x="52" y="51"/><rect fill="#ffb655" height="3" rx="1" width="2" x="56" y="52"/></g></svg>