<svg height="512pt" viewBox="0 0 512 512" width="512pt" xmlns="http://www.w3.org/2000/svg"><g fill="#9bdd39"><path d="m395.3125 17.8125-24.171875-17.8125-31.460937 42.894531c-23.84375-17.03125-53.058594-27.074219-84.589844-27.074219-27.695313 0-53.605469 7.75-75.660156 21.175782l-27.132813-36.996094-24.171875 17.8125 27.402344 37.359375c-28.160156 26.378906-45.769532 63.777344-45.769532 105.195313v15.035156h290.667969v-15.035156c0-37.542969-14.46875-71.785157-38.148437-97.511719zm-165.28125 92.179688c-1.933594 4.246093-5.40625 7.488281-9.769531 9.117187-1.984375.742187-4.046875 1.113281-6.105469 1.113281-2.46875 0-4.929688-.535156-7.242188-1.59375-8.742187-4.003906-12.609374-14.398437-8.613281-23.167968 1.933594-4.25 5.40625-7.488282 9.769531-9.117188 4.367188-1.632812 9.105469-1.464844 13.34375.476562 4.238282 1.941407 7.472657 5.421876 9.097657 9.796876 1.628906 4.375 1.457031 9.125-.480469 13.375zm81.875-.003907c-1.9375 4.25-5.410156 7.488281-9.773438 9.121094-1.984374.742187-4.046874 1.113281-6.105468 1.113281-2.464844 0-4.925782-.535156-7.238282-1.59375-4.238281-1.941406-7.46875-5.417968-9.097656-9.796875-1.628906-4.375-1.457031-9.125.480469-13.375 1.933594-4.246093 5.402344-7.484375 9.769531-9.113281 4.367188-1.632812 9.109375-1.464844 13.34375.476562 8.746094 4.003907 12.613282 14.398438 8.621094 23.167969zm0 0"/><path d="m44.769531 192.738281h-.515625c-24.402344 0-44.253906 19.902344-44.253906 44.363281v106.535157c0 24.457031 19.851562 44.359375 44.253906 44.359375h.515625c24.402344 0 44.253907-19.902344 44.253907-44.359375v-106.535157c0-24.460937-19.851563-44.363281-44.253907-44.363281zm0 0"/><path d="m467.746094 192.738281h-.515625c-24.402344 0-44.253907 19.902344-44.253907 44.363281v106.53125c0 24.460938 19.851563 44.359376 44.253907 44.359376h.515625c24.402344 0 44.253906-19.898438 44.253906-44.359376v-106.53125c0-24.460937-19.851562-44.363281-44.253906-44.363281zm0 0"/><path d="m109.757812 409.496094h47.707032v58.144531c0 24.460937 19.96875 44.359375 44.511718 44.359375 24.542969 0 44.511719-19.898438 44.511719-44.359375v-58.144531h18.191407v58.144531c0 24.460937 19.96875 44.359375 44.511718 44.359375 24.542969 0 44.511719-19.898438 44.511719-44.359375v-58.144531h46.726563v-210.890625h-290.671876zm0 0"/></g><path d="m467.746094 192.738281h-.515625c-24.402344 0-44.253907 19.902344-44.253907 44.363281v106.53125c0 24.460938 19.851563 44.359376 44.253907 44.359376h.515625c24.402344 0 44.253906-19.898438 44.253906-44.359376v-106.53125c0-24.460937-19.851562-44.363281-44.253906-44.363281zm0 0" fill="#93bf00"/><path d="m400.425781 160.367188c0-37.542969-14.46875-71.785157-38.148437-97.511719l33.035156-45.042969-24.171875-17.8125-31.460937 42.894531c-23.839844-17.027343-53.050782-27.070312-84.578126-27.074219v159.582032h145.324219zm-88.519531-50.378907c-1.9375 4.25-5.410156 7.488281-9.773438 9.121094-1.984374.742187-4.046874 1.113281-6.105468 1.113281-2.464844 0-4.925782-.535156-7.238282-1.59375-4.238281-1.941406-7.46875-5.417968-9.097656-9.796875-1.628906-4.375-1.457031-9.125.480469-13.375 1.933594-4.246093 5.402344-7.484375 9.769531-9.113281 4.367188-1.632812 9.109375-1.464844 13.34375.476562 8.746094 4.003907 12.613282 14.398438 8.621094 23.167969zm0 0" fill="#93bf00"/><path d="m255.101562 198.605469v210.890625h9.578126v58.144531c0 24.460937 19.96875 44.359375 44.511718 44.359375 24.542969 0 44.511719-19.898438 44.511719-44.359375v-58.144531h46.722656v-210.890625zm0 0" fill="#93bf00"/></svg>