<svg height="512" viewBox="0 0 128 128" width="512" xmlns="http://www.w3.org/2000/svg"><g><path d="m73.25 113.333h-18.5l4.75-27.875h9z" fill="#67b5bc"/><path d="m6.5 6.5h115v84.529h-115z" fill="#79d5dd"/><path d="m30.735-5.735h66.529v103h-66.529z" fill="#f0f0fb" transform="matrix(0 1 -1 0 109.765 -18.235)"/><path d="m18.5 33.43a1.75 1.75 0 0 1 -1.75-1.75v-9a1.75 1.75 0 0 1 3.5 0v9a1.75 1.75 0 0 1 -1.75 1.75z" fill="#d0d0da"/><path d="m56.1 109.5h15.8a12 12 0 0 1 12 12 0 0 0 0 1 0 0h-39.8a0 0 0 0 1 0 0 12 12 0 0 1 12-12z" fill="#79d5dd"/><g fill="#d0d0da"><path d="m100.2 25.583h-72.4a1.75 1.75 0 0 1 0-3.5h72.4a1.75 1.75 0 0 1 0 3.5z"/><path d="m100.2 34.356h-72.4a1.75 1.75 0 0 1 0-3.5h72.4a1.75 1.75 0 0 1 0 3.5z"/><path d="m100.2 43.128h-72.4a1.75 1.75 0 1 1 0-3.5h72.4a1.75 1.75 0 0 1 0 3.5z"/><path d="m100.2 51.9h-72.4a1.75 1.75 0 0 1 0-3.5h72.4a1.75 1.75 0 0 1 0 3.5z"/><path d="m100.2 60.673h-72.4a1.75 1.75 0 0 1 0-3.5h72.4a1.75 1.75 0 0 1 0 3.5z"/><path d="m100.2 69.446h-72.4a1.75 1.75 0 0 1 0-3.5h72.4a1.75 1.75 0 0 1 0 3.5z"/></g><g><rect fill="#f5ddcd" height="73.75" rx="6" width="45.196" x="76.304" y="47.75"/><path d="m104.9 55.5h-12a1.75 1.75 0 1 1 0-3.5h12a1.75 1.75 0 0 1 0 3.5z" fill="#d4bfb1"/><path d="m101.9 117.25h-6a1.75 1.75 0 1 1 0-3.5h6a1.75 1.75 0 0 1 0 3.5z" fill="#d4bfb1"/><circle cx="98.902" cy="84.625" fill="#f0f0fb" r="10"/><path d="m96.76 89.54a1.745 1.745 0 0 1 -1.238-.513l-2.044-2.045a1.749 1.749 0 0 1 2.474-2.474l.808.807 5.093-5.092a1.749 1.749 0 0 1 2.474 2.474l-6.327 6.33a1.743 1.743 0 0 1 -1.24.513z" fill="#d4bfb1"/></g></g></svg>