<svg id="Capa_1" enable-background="new 0 0 512 512" height="512" viewBox="0 0 512 512" width="512" xmlns="http://www.w3.org/2000/svg"><g><path d="m0 0h211v211h-211z" fill="#2ee6a8"/><path d="m301 0h211v211h-211z" fill="#e62e6b"/><path d="m0 301h211v211h-211z" fill="#ccd5ff"/><path d="m301 301h211v211h-211z" fill="#fb3"/><path d="m429.5 82.5h-173.5l-20 173.5 20 173.5h173.5z" fill="#17294d"/><path d="m82.5 82.5h173.5v347h-173.5z" fill="#284866"/><path d="m399.5 112.5h-143.5l-20 143.5 20 143.5h143.5z" fill="#284866"/><path d="m112.5 112.5h143.5v287h-143.5z" fill="#406a80"/><path d="m369.5 271v-30h-31.376c-2.164-11.876-6.838-22.881-13.467-32.444l22.206-22.206-21.213-21.213-22.206 22.206c-9.563-6.629-20.568-11.303-32.444-13.467v-31.376h-15l-20 113.5 20 113.5h15v-31.376c11.876-2.164 22.881-6.838 32.444-13.467l22.206 22.206 21.213-21.213-22.206-22.206c6.629-9.563 11.303-20.568 13.467-32.444z" fill="#cfcfe6"/><path d="m241 142.5v31.376c-11.876 2.164-22.881 6.838-32.444 13.467l-22.206-22.206-21.213 21.213 22.206 22.206c-6.629 9.563-11.303 20.568-13.467 32.444h-31.376v30h31.376c2.164 11.876 6.838 22.881 13.467 32.444l-22.206 22.206 21.213 21.213 22.206-22.206c9.563 6.629 20.568 11.303 32.444 13.467v31.376h15v-227z" fill="#ece6f2"/><path d="m256 202.5-20 53.5 20 53.5c29.5 0 53.5-24 53.5-53.5s-24-53.5-53.5-53.5z" fill="#17294d"/><path d="m202.5 256c0 29.5 24 53.5 53.5 53.5v-107c-29.5 0-53.5 24-53.5 53.5z" fill="#284866"/></g></svg>