<svg id="Layer_1" height="512" viewBox="0 0 128 128" width="512" xmlns="http://www.w3.org/2000/svg"><g><g><g><g><path d="m21.815 119.23v-38.355c0-1.186.351-2.284.93-3.225h-10.992c-3.432 0-6.215 2.782-6.215 6.215v32.376c0 3.432 2.782 6.215 6.215 6.215h10.992c-.579-.943-.93-2.04-.93-3.226z" fill="#ff6f69"/></g></g></g><g><g><g><path d="m87.104 71.036c-.878 2.036-9.276 14.139-10.647 16.088-.72 1.024-1.964 2.359-2.983 3.396-.454.462-.101 1.329.495 1.213 2.417-.469 6.41-1.245 9.552-1.866.455-.566.808-.997 1.034-1.244 2.06-2.243 5.636-8.543 5.636-8.543 7.875-10.164 2.039-11.479 2.039-11.479-1.938-.69-3.79-.248-5.467.767.395.522.589 1.091.341 1.668z" fill="#aa9865"/></g></g></g><g><g><g><path d="m86.386 89.296s10.967-9.426 15.647-12.033c0 0 1.799-3.973 4.713-7.799-.462-2.187-2.264-2.626-2.264-2.626-8.38-3.204-15.386 13.5-15.386 13.5-3.648 2.202-11.671 9.542-13.296 11.04 3.373-.656 8.05-1.569 10.586-2.082z" fill="#c9b77d"/></g></g></g><g><g><g><g><g><g><g><g><path d="m94.285 36.144c-.791-3.257-2.073-6.312-3.768-9.098l2.371-2.369 3.025-3.023c.877-.877.878-2.299.001-3.176l-1.977-1.979-5.651-5.655c-.877-.877-2.299-.878-3.176-.001l-5.396 5.392c-2.785-1.698-5.839-2.982-9.095-3.775l.003-7.625c0-1.24-1.005-2.246-2.245-2.246l-10.793-.004c-1.24 0-2.246 1.005-2.246 2.245l-.003 7.625c-3.256.791-6.312 2.072-9.098 3.768l-5.392-5.396c-.877-.877-2.299-.878-3.176-.001l-5.655 5.651-1.979 1.977c-.877.877-.878 2.298-.001 3.176l3.023 3.026 2.369 2.371c-1.697 2.785-2.981 5.839-3.775 9.095l-7.625-.003c-1.24 0-2.246 1.005-2.246 2.245l-.004 10.792c0 1.24 1.005 2.246 2.245 2.246l7.625.003c.363 1.494.817 2.951 1.379 4.355.664 1.656 1.471 3.235 2.389 4.743l-.099.1.049.098-3.329 3.256-1.983 1.939c-.894.874-.902 2.309-.018 3.193l7.611 7.617c.877.877 2.299.878 3.176.001l5.396-5.392c2.785 1.698 5.84 2.982 9.095 3.775l-.003 7.624c0 1.24 1.005 2.246 2.245 2.246l10.792.004c1.24 0 2.246-1.005 2.246-2.245l.003-7.624c3.256-.791 6.312-2.073 9.098-3.768l5.392 5.396c.877.877 2.299.878 3.176.001l7.634-7.628c.877-.877.878-2.299.001-3.176l-1.977-1.979-3.414-3.417c.146-.24.298-.477.439-.722l1.13-2.178c.289-.606.572-1.215.823-1.841.564-1.404 1.019-2.86 1.383-4.354l7.625.003c1.24 0 2.246-1.005 2.246-2.245l.004-10.792c0-1.24-1.005-2.246-2.245-2.246zm-28.048 26.721c-13.25 2.168-24.538-9.128-22.36-22.377 1.319-8.023 7.792-14.492 15.816-15.805 13.25-2.169 24.539 9.128 22.361 22.378-1.32 8.022-7.794 14.491-15.817 15.804z" fill="#ff6f69"/></g></g></g></g></g></g><g><g><g><g><g><g><path d="m62.976 14.481c-16.178-.006-29.298 13.104-29.304 29.283s13.104 29.298 29.283 29.304c16.178.006 29.298-13.104 29.304-29.283.005-16.178-13.105-29.298-29.283-29.304zm-.019 51.392c-12.205-.004-22.095-9.902-22.091-22.107s9.902-22.095 22.107-22.09c12.205.004 22.095 9.902 22.091 22.106-.005 12.205-9.902 22.095-22.107 22.091z" fill="#e05858"/></g></g></g></g></g></g></g><g><g><g><g><path d="m57.554 84.959 10.792.004c1.24.001 2.246-1.005 2.246-2.245l.003-7.624c3.256-.791 6.312-2.073 9.098-3.769l2.238 2.239c1.714-2.588 3.121-4.804 3.46-5.59.523-1.213-.778-2.399-2.01-3.203-4.413 4.291-10.171 7.2-16.584 8.038-.267.481-.403.771-.403.771-3.042 1.007-8.878 4.584-8.878 4.584s-.802-.303-2.205-.645l-.002 5.193c0 1.241 1.005 2.247 2.245 2.247z" fill="#e05858"/></g></g></g><g><g><g><path d="m66.798 72.81c6.412-.838 12.171-3.747 16.584-8.038-.948-.619-1.855-1.01-1.855-1.01-8.079-1.671-13.294 6.46-14.729 9.048z" fill="#bf4343"/></g></g></g></g></g><g><g><g><path d="m33.232 125.415h-5.232c-3.416 0-6.185-2.769-6.185-6.185v-38.355c0-3.416 2.769-6.185 6.185-6.185h5.232c3.416 0 6.185 2.769 6.185 6.185v38.355c0 3.416-2.769 6.185-6.185 6.185z" fill="#96ceb4"/></g></g></g><g><g><g><path d="m119.724 62.92c-9.649-3.436-17.691 14.343-17.691 14.343-4.681 2.607-15.647 12.033-15.647 12.033-3.039.615-9.16 1.806-12.417 2.437-.597.116-.949-.751-.495-1.213 1.019-1.037 2.263-2.372 2.983-3.396 1.371-1.949 9.769-14.052 10.647-16.088.878-2.035-3.665-3.996-3.665-3.996-9.084-1.878-14.351 9.313-14.351 9.313-2.885.955-8.42 4.348-8.42 4.348s-7.659-2.906-17.022-.654c-1.576.379-2.979.943-4.229 1.639v36.935c7.619.392 26.654.679 38.802-1.588 12.707-2.371 28.704-24.832 31.413-27.782s7.412-11.236 7.412-11.236c10.356-13.365 2.68-15.095 2.68-15.095z" fill="#ffeead"/></g></g></g><g><g><g><path d="m122.268 65.457c-.527 2.195-2.003 5.194-5.176 9.289 0 0-4.703 8.285-7.412 11.235s-18.706 25.411-31.413 27.783c-9.378 1.75-22.861 1.977-32.03 1.81-1.744-.386-3.75-1.696-3.862-5.668-.258-9.22-.159-14.123-.212-20.446-.027-3.229 1.52-8.226 2.604-9.667-.373.083-.744.164-1.122.255-1.576.379-2.979.943-4.229 1.639v36.935c.144.008.284.015.437.023.1.004.209.009.312.014.165.008.326.015.5.023 8.293.356 26.027.504 37.554-1.647 12.707-2.371 28.703-24.832 31.413-27.783 2.709-2.95 7.412-11.235 7.412-11.235 5.176-6.683 5.847-10.456 5.224-12.56z" fill="#c9b77d"/></g></g></g><g><g><g><path d="m21.815 119.23v-1.598h-10.062c-3.432 0-6.215-2.782-6.215-6.215v4.823c0 3.432 2.782 6.215 6.215 6.215h10.992c-.579-.942-.93-2.039-.93-3.225z" fill="#e05858"/></g></g></g><g><g><g><path d="m33.232 119.513h-5.232c-3.416 0-6.185-2.769-6.185-6.185v5.902c0 3.416 2.769 6.185 6.185 6.185h5.232c3.416 0 6.185-2.769 6.185-6.185v-5.902c0 3.416-2.769 6.185-6.185 6.185z" fill="#71a58a"/></g></g></g></g></svg>