<svg id="Capa_1" enable-background="new 0 0 510 510" height="512" viewBox="0 0 510 510" width="512" xmlns="http://www.w3.org/2000/svg"><g><path d="m0 480v30h255l15-15-13.547-21.272-128.953-8.728z" fill="#f17b4a"/><path d="m510 480-127.5-15-127.5 15v30h255c0-10.492 0-19.508 0-30z" fill="#f14a59"/><path d="m0 0v405l127.5 15 127.5-15 15-202.5-15-202.5c-7.193 0-247.807 0-255 0z" fill="#e8f1fd"/><path d="m510 0c-7.193 0-247.807 0-255 0v405l127.5 15 127.5-15c0-11.419 0-393.581 0-405z" fill="#cfdbfd"/><path d="m105 60v300h15l10-150-10-150z" fill="#4e5f7f"/><path d="m135 60h-15v300h15z" fill="#3e4665"/><path d="m240 60v300h15l7.5-150-7.5-150z" fill="#4e5f7f"/><path d="m270 60h-15v300h15z" fill="#3e4665"/><path d="m375 360h15l7.5-150-7.5-150h-15z" fill="#4e5f7f"/><path d="m390 360h15v-300h-15z" fill="#3e4665"/><path d="m0 405v75h255l15-37.5-15-37.5c-7.193 0-247.807 0-255 0z" fill="#cfdbfd"/><path d="m510 405c-7.193 0-247.807 0-255 0v75h255c0-20.194 0-63.236 0-75z" fill="#b3c7ef"/><path d="m217.5 270c0 20.71 16.789 37.5 37.5 37.5l15-37.5-15-37.5c-20.71 0-37.5 16.789-37.5 37.5z" fill="#f4d844"/><path d="m292.5 270c0-20.71-16.789-37.5-37.5-37.5v75c20.71 0 37.5-16.789 37.5-37.5z" fill="#ecbd2c"/><path d="m82.5 150c0 20.71 16.789 37.5 37.5 37.5l15-37.5-15-37.5c-20.71 0-37.5 16.789-37.5 37.5z" fill="#f17b4a"/><path d="m120 112.5v75c20.71 0 37.5-16.789 37.5-37.5 0-20.71-16.789-37.5-37.5-37.5z" fill="#f14a59"/><path d="m352.5 150c0 20.71 16.789 37.5 37.5 37.5l15-37.5-15-37.5c-20.71 0-37.5 16.789-37.5 37.5z" fill="#5bd69b"/><path d="m390 112.5v75c20.71 0 37.5-16.789 37.5-37.5 0-20.71-16.789-37.5-37.5-37.5z" fill="#45a295"/></g></svg>