<?xml version="1.0" encoding="iso-8859-1"?>
<!-- Generator: Adobe Illustrator 21.0.0, SVG Export Plug-In . SVG Version: 6.00 Build 0)  -->
<svg xmlns="http://www.w3.org/2000/svg" xmlns:xlink="http://www.w3.org/1999/xlink" version="1.1" id="Capa_1" x="0px" y="0px" viewBox="0 0 512 512" style="enable-background:new 0 0 512 512;" xml:space="preserve" width="512" height="512">
<g>
	<path style="fill:#D8D5ED;" d="M485.5,512h-400c-2.209,0-4-1.791-4-4V4c0-2.209,1.791-4,4-4h400c2.209,0,4,1.791,4,4v504   C489.5,510.209,487.709,512,485.5,512z"/>
	<path style="fill:#BEBADE;" d="M458.591,0v512H485.5c2.209,0,4-1.791,4-4V4c0-2.209-1.791-4-4-4H458.591z"/>
	<g>
		<path style="fill:#484B63;" d="M167.576,308.517h226.64c4.143,0,7.5-3.357,7.5-7.5s-3.357-7.5-7.5-7.5h-226.64    c-4.143,0-7.5,3.357-7.5,7.5S163.434,308.517,167.576,308.517z"/>
		<path style="fill:#484B63;" d="M394.216,447.063h-226.64c-4.143,0-7.5,3.357-7.5,7.5s3.357,7.5,7.5,7.5h226.64    c4.143,0,7.5-3.357,7.5-7.5S398.358,447.063,394.216,447.063z"/>
		<path style="fill:#484B63;" d="M394.216,327.855h-226.64c-4.143,0-7.5,3.357-7.5,7.5s3.357,7.5,7.5,7.5h226.64    c4.143,0,7.5-3.357,7.5-7.5S398.358,327.855,394.216,327.855z"/>
		<path style="fill:#484B63;" d="M394.216,362.195h-226.64c-4.143,0-7.5,3.357-7.5,7.5s3.357,7.5,7.5,7.5h226.64    c4.143,0,7.5-3.357,7.5-7.5S398.358,362.195,394.216,362.195z"/>
		<path style="fill:#484B63;" d="M167.576,411.534h57.772c4.143,0,7.5-3.357,7.5-7.5s-3.357-7.5-7.5-7.5h-57.772    c-4.143,0-7.5,3.357-7.5,7.5S163.434,411.534,167.576,411.534z"/>
	</g>
	<path style="fill:#FF2C5C;" d="M111.345,92.049v80.513c0,1.478-1.717,2.388-3.06,1.621l-24.74-14.109   c-0.642-0.366-1.447-0.366-2.089,0l-24.74,14.109c-1.343,0.766-3.06-0.144-3.06-1.621V92.049H111.345z"/>
	<path style="fill:#FFD659;" d="M142.5,60c0,5.157-5.396,9.536-6.668,14.292c-1.315,4.921,1.13,11.405-1.363,15.713   c-2.529,4.371-9.39,5.479-12.937,9.027c-3.547,3.547-4.656,10.408-9.027,12.937c-4.309,2.493-10.792,0.048-15.713,1.363   C92.036,114.604,87.657,120,82.5,120c-5.157,0-9.536-5.396-14.292-6.668c-4.921-1.315-11.405,1.13-15.713-1.363   c-4.371-2.529-5.479-9.39-9.027-12.937c-3.547-3.547-10.408-4.656-12.937-9.027c-2.493-4.309-0.048-10.792-1.363-15.713   C27.896,69.536,22.5,65.157,22.5,60c0-5.157,5.396-9.536,6.668-14.292c1.315-4.921-1.13-11.405,1.363-15.713   c2.529-4.371,9.39-5.479,12.937-9.027c3.547-3.547,4.656-10.408,9.027-12.937c4.309-2.493,10.792-0.048,15.713-1.363   C72.964,5.396,77.343,0,82.5,0c5.157,0,9.536,5.396,14.292,6.668c4.921,1.315,11.405-1.13,15.713,1.363   c4.371,2.529,5.479,9.39,9.027,12.937c3.547,3.547,10.408,4.656,12.937,9.027c2.493,4.309,0.048,10.792,1.363,15.713   C137.104,50.464,142.5,54.843,142.5,60z"/>
	<g>
		<path style="fill:#484B63;" d="M412.096,245.698H160.655c-10.22,0-18.505-8.285-18.505-18.505v-5.405    c0-2.725,2.209-4.935,4.935-4.935h278.581c2.725,0,4.935,2.209,4.935,4.935v5.405    C430.601,237.413,422.316,245.698,412.096,245.698z"/>
		<path style="fill:#424359;" d="M425.666,216.853h-30.905c2.725,0,4.935,2.209,4.935,4.935v5.405    c0,10.22-8.285,18.505-18.505,18.505h30.905c10.22,0,18.505-8.285,18.505-18.505v-5.405    C430.601,219.062,428.391,216.853,425.666,216.853z"/>
		<path style="fill:#4FC6F5;" d="M398.665,216.853H174.086c-5.69,0-10.302-4.612-10.302-10.302V79.839    c0-5.69,4.612-10.302,10.302-10.302h224.579c5.69,0,10.302,4.612,10.302,10.302v126.712    C408.967,212.241,404.355,216.853,398.665,216.853z"/>
		<path style="fill:#3BB3E3;" d="M398.665,69.537H367.76c5.69,0,10.302,4.612,10.302,10.302v126.712    c0,5.69-4.612,10.302-10.302,10.302h30.905c5.69,0,10.302-4.612,10.302-10.302V79.839    C408.967,74.149,404.355,69.537,398.665,69.537z"/>
	</g>
</g>















</svg>
