<svg id="Flat" height="512" viewBox="0 0 512 512" width="512" xmlns="http://www.w3.org/2000/svg"><path d="m448 56h-384l-40 144h464z" fill="#3397e8"/><path d="m56 200h400a0 0 0 0 1 0 0v224a32 32 0 0 1 -32 32h-336a32 32 0 0 1 -32-32v-224a0 0 0 0 1 0 0z" fill="#3397e8"/><path d="m24 200c0 30.928 17 56 64 56a56 56 0 0 0 56-56z" fill="#2d85cc"/><path d="m144 200a56 56 0 0 0 112 0z" fill="#2978b8"/><path d="m256 200a56 56 0 0 0 112 0z" fill="#2d85cc"/><path d="m368 200a56 56 0 0 0 56 56c46.333 0 64-25.072 64-56z" fill="#2978b8"/><path d="m256 200v-144h-104l-8 144z" fill="#2d85cc"/><path d="m360 56h88l40 144h-120z" fill="#2d85cc"/><path d="m360 432a72 72 0 0 1 -.262-144c4.256-.241 37.691-.88 62.839 35.446a8 8 0 1 1 -13.154 9.108c-20.864-30.137-47.684-28.653-48.815-28.577-.22.018-.386.023-.608.023a56 56 0 1 0 55.431 64h-47.431a8 8 0 0 1 0-16h56a8 8 0 0 1 8 8 72.081 72.081 0 0 1 -72 72z" fill="#e9eef2"/></svg>