<svg id="Capa_1" enable-background="new 0 0 509 509" height="512" viewBox="0 0 509 509" width="512" xmlns="http://www.w3.org/2000/svg"><g id="XMLID_450_"><path id="XMLID_481_" d="m134 419v60h187.5l10-27-10-33.5-92.167-9.754z" fill="#fce867"/><path id="XMLID_480_" d="m449 164-30.333 220.391-97.167 34.109v60.5h187.5v-315z" fill="#ffc24c"/><path id="XMLID_479_" d="m89 360v59h180l10-28.754-10-30.246-87-10z" fill="#fe6664"/><path id="XMLID_476_" d="m449 119h-59.001l-120.999 241v59h180z" fill="#e82e68"/><path id="XMLID_465_" d="m0 30v330l210-82.5 15-112.5-15-135z" fill="#99cdff"/><path id="XMLID_464_" d="m210 30v247.5l180 82.5v-330z" fill="#629df5"/><path id="XMLID_463_" d="m135 202.5-135 157.5h127.75l56.803-36.945 25.447-45.555z" fill="#52fe83"/><path id="XMLID_460_" d="m165 135c0 24.813 20.186 45 45 45l15-45-15-45c-24.814 0-45 20.188-45 45z" fill="#fce867"/><path id="XMLID_457_" d="m210 90v90c24.813 0 45-20.188 45-45s-20.187-45-45-45z" fill="#ffc24c"/><path id="XMLID_456_" d="m127.75 360h82.25l10.5-39.25-10.5-43.25c-6.226 6.245-79.877 80.119-82.25 82.5z" fill="#34ce96"/><path id="XMLID_451_" d="m270 217.5-60 60v82.5h180z" fill="#0baa6d"/></g></svg>