<svg id="Capa_1" enable-background="new 0 0 512 512" height="512" viewBox="0 0 512 512" width="512" xmlns="http://www.w3.org/2000/svg" xmlns:xlink="http://www.w3.org/1999/xlink"><linearGradient id="SVGID_1_" gradientUnits="userSpaceOnUse" x1="256" x2="256" y1="512" y2="0"><stop offset="0" stop-color="#009efd"/><stop offset="1" stop-color="#2af598"/></linearGradient><g><g><path d="m452 276h-116c-33.084 0-60 26.916-60 60v116c0 33.084 26.916 60 60 60h116c33.084 0 60-26.916 60-60v-116c0-33.084-26.916-60-60-60zm20 176c0 11.028-8.972 20-20 20h-116c-11.028 0-20-8.972-20-20v-116c0-11.028 8.972-20 20-20h116c11.028 0 20 8.972 20 20zm-296-176h-116c-33.084 0-60 26.916-60 60v116c0 33.084 26.916 60 60 60h116c33.084 0 60-26.916 60-60v-116c0-33.084-26.916-60-60-60zm20 176c0 11.028-8.972 20-20 20h-116c-11.028 0-20-8.972-20-20v-116c0-11.028 8.972-20 20-20h116c11.028 0 20 8.972 20 20zm256-452h-116c-33.084 0-60 26.916-60 60v116c0 33.084 26.916 60 60 60h116c33.084 0 60-26.916 60-60v-116c0-33.084-26.916-60-60-60zm20 176c0 11.028-8.972 20-20 20h-116c-11.028 0-20-8.972-20-20v-116c0-11.028 8.972-20 20-20h116c11.028 0 20 8.972 20 20zm-296-176h-116c-33.084 0-60 26.916-60 60v116c0 33.084 26.916 60 60 60h116c33.084 0 60-26.916 60-60v-116c0-33.084-26.916-60-60-60zm20 176c0 11.028-8.972 20-20 20h-116c-11.028 0-20-8.972-20-20v-116c0-11.028 8.972-20 20-20h116c11.028 0 20 8.972 20 20z" fill="url(#SVGID_1_)"/></g></g></svg>