<svg id="Capa_1" enable-background="new 0 0 512 512" height="512" viewBox="0 0 512 512" width="512" xmlns="http://www.w3.org/2000/svg"><g><g><path d="m5.02 102.637-5.02 9.361v261.409c0 17.25 13.984 31.234 31.234 31.234h361.412c17.25 0 31.234-13.984 31.234-31.234v-261.409l-5.02-9.361z" fill="#d8eafb"/></g><g><path d="m372.737 102.637v219.626c0 17.25-13.984 31.234-31.234 31.234h-341.503v19.91c0 17.25 13.984 31.234 31.234 31.234h361.412c17.25 0 31.234-13.984 31.234-31.234v-261.409l-5.02-9.361z" fill="#b3d8fb"/></g><g><path d="m392.647 25.8h-361.413c-17.25 0-31.234 13.984-31.234 31.234v54.964h423.881v-54.964c0-17.25-13.984-31.234-31.234-31.234z" fill="#1690fb"/></g><g><path d="m392.647 25.8h-19.91v86.198h51.145v-54.964c-.001-17.25-13.985-31.234-31.235-31.234z" fill="#0571f9"/></g><g><g><circle cx="52.551" cy="68.899" fill="#b3d8fb" r="14.013"/></g><g><circle cx="95.658" cy="68.899" fill="#b3d8fb" r="14.013"/></g><g><circle cx="138.765" cy="68.899" fill="#b3d8fb" r="14.013"/></g></g><g><g><g><path d="m123.48 275.405c-.927 0-1.868-.172-2.781-.535-3.865-1.537-5.752-5.916-4.214-9.78l41.883-105.305c1.537-3.865 5.917-5.748 9.779-4.214 3.865 1.537 5.752 5.916 4.214 9.78l-41.883 105.305c-1.173 2.952-4.005 4.749-6.998 4.749z" fill="#465961"/></g></g><g><g><path d="m206.721 270.356c-1.281 0-2.579-.327-3.767-1.016-3.599-2.085-4.827-6.691-2.742-10.29l25.895-44.705-25.827-42.84c-2.147-3.561-1.001-8.189 2.561-10.336 3.56-2.147 8.19-1.002 10.336 2.561l28.125 46.651c1.418 2.351 1.443 5.286.068 7.662l-28.125 48.556c-1.397 2.41-3.926 3.756-6.524 3.757z" fill="#465961"/></g></g><g><g><path d="m80.684 270.356c-2.598 0-5.127-1.347-6.523-3.757l-28.125-48.556c-1.376-2.376-1.35-5.311.068-7.662l28.125-46.651c2.147-3.562 6.778-4.707 10.336-2.561 3.562 2.147 4.708 6.775 2.561 10.336l-25.827 42.84 25.895 44.705c2.085 3.599.857 8.206-2.742 10.29-1.189.688-2.488 1.015-3.768 1.016z" fill="#465961"/></g></g></g><g><g><path d="m463.518 339.329h-21.11c-2.348-9.377-6.052-18.212-10.896-26.29l14.931-14.932c2.955-2.954 2.955-7.744 0-10.698l-22.857-22.857c-2.954-2.955-7.744-2.955-10.698 0l-14.932 14.931c-8.077-4.845-16.914-8.549-26.29-10.896v-21.11c0-4.178-3.387-7.565-7.565-7.565h-32.325c-4.178 0-7.565 3.387-7.565 7.565v21.11c-9.376 2.348-18.213 6.052-26.29 10.896l-14.932-14.931c-2.954-2.955-7.744-2.955-10.698 0l-22.857 22.857c-2.954 2.954-2.954 7.744 0 10.698l14.931 14.932c-4.845 8.077-8.549 16.913-10.896 26.29h-21.11c-4.178 0-7.565 3.387-7.565 7.565v32.325c0 4.178 3.387 7.565 7.565 7.565h21.11c2.348 9.377 6.052 18.213 10.896 26.29l-14.931 14.931c-2.954 2.955-2.954 7.744 0 10.698l22.857 22.857c2.954 2.955 7.744 2.955 10.698 0l14.932-14.931c8.077 4.845 16.914 8.549 26.29 10.896v21.11c0 4.178 3.387 7.565 7.565 7.565h32.325c4.178 0 7.565-3.387 7.565-7.565v-21.11c9.376-2.348 18.213-6.052 26.29-10.896l14.932 14.931c2.954 2.955 7.744 2.955 10.698 0l22.857-22.857c2.955-2.954 2.955-7.744 0-10.698l-14.931-14.931c4.845-8.077 8.549-16.914 10.896-26.29h21.11c4.178 0 7.565-3.387 7.565-7.565v-32.325c0-4.178-3.387-7.565-7.565-7.565zm-115.578 62.685c-21.515 0-38.958-17.442-38.958-38.958 0-21.515 17.442-38.958 38.958-38.958 21.515 0 38.958 17.442 38.958 38.958-.001 21.516-17.443 38.958-38.958 38.958z" fill="#7c8b96"/></g><g><path d="m463.518 339.329h-21.115c-2.348-9.375-6.051-18.21-10.896-26.285l14.936-14.936c2.955-2.954 2.955-7.744 0-10.698l-22.857-22.857c-2.954-2.955-7.744-2.955-10.698 0l-14.943 14.943c-8.179-4.903-17.131-8.65-26.639-10.992 24.7 17.666 40.817 46.567 40.817 79.251 0 53.789-43.605 97.394-97.394 97.394-8.057 0-15.879-.997-23.367-2.841 9.763 6.983 20.868 12.203 32.851 15.211v21.117c0 4.178 3.387 7.565 7.565 7.565h32.325c4.178 0 7.565-3.387 7.565-7.565v-21.11c9.376-2.348 18.213-6.052 26.29-10.896l14.932 14.931c2.954 2.955 7.744 2.955 10.698 0l22.857-22.857c2.955-2.954 2.955-7.744 0-10.698l-14.931-14.931c4.844-8.077 8.549-16.914 10.896-26.29h21.11c4.178 0 7.565-3.387 7.565-7.565v-32.325c-.002-4.179-3.389-7.566-7.567-7.566z" fill="#465961"/></g></g><g><g><g><path d="m509.561 194.516-10.13-4.138c.711-4.96.666-9.926-.076-14.751l10.092-4.238c1.997-.838 2.936-3.137 2.097-5.133l-6.488-15.449c-.838-1.997-3.137-2.936-5.133-2.097l-10.092 4.238c-2.926-3.908-6.44-7.417-10.479-10.382l4.138-10.13c.819-2.005-.142-4.294-2.147-5.113l-15.511-6.336c-2.005-.819-4.294.143-5.113 2.147l-4.138 10.13c-4.96-.711-9.926-.666-14.751.075l-4.238-10.092c-.838-1.997-3.137-2.936-5.133-2.097l-15.449 6.488c-1.997.838-2.936 3.137-2.097 5.133l4.238 10.092c-3.908 2.926-7.417 6.44-10.382 10.479l-10.13-4.138c-2.005-.819-4.294.143-5.113 2.147l-6.336 15.511c-.819 2.005.142 4.294 2.147 5.113l10.13 4.138c-.711 4.96-.666 9.926.075 14.751l-10.092 4.238c-1.997.839-2.936 3.137-2.097 5.134l6.488 15.449c.839 1.997 3.137 2.936 5.133 2.097l10.092-4.238c2.926 3.908 6.44 7.417 10.48 10.382l-4.138 10.13c-.819 2.005.142 4.294 2.147 5.113l15.511 6.336c2.005.819 4.294-.143 5.113-2.147l4.138-10.13c4.96.711 9.926.666 14.751-.075l4.238 10.092c.838 1.997 3.137 2.936 5.133 2.097l15.449-6.488c1.997-.838 2.936-3.137 2.097-5.134l-4.238-10.092c3.908-2.926 7.417-6.44 10.382-10.479l10.13 4.138c2.005.819 4.294-.142 5.113-2.147l6.336-15.511c.819-2.005-.143-4.295-2.147-5.113zm-67.749 7.424c-10.324-4.217-15.275-16.006-11.058-26.33s16.006-15.275 26.33-11.058 15.275 16.006 11.058 26.33-16.005 15.275-26.33 11.058z" fill="#7c8b96"/></g></g><g><g><path d="m509.561 194.516-10.132-4.139c.711-4.959.666-9.924-.076-14.749l10.095-4.24c1.997-.838 2.936-3.137 2.097-5.133l-6.488-15.449c-.838-1.997-3.137-2.936-5.133-2.097l-10.1 4.242c-2.964-3.956-6.525-7.509-10.628-10.496 8.39 13.319 10.458 30.346 4.051 46.03-10.544 25.811-40.015 38.188-65.826 27.644-3.866-1.579-7.424-3.591-10.656-5.944 3.316 5.264 7.622 9.946 12.782 13.738l-4.139 10.133c-.819 2.005.142 4.294 2.147 5.113l15.511 6.336c2.005.819 4.294-.143 5.113-2.147l4.138-10.13c4.96.711 9.926.666 14.751-.075l4.238 10.092c.838 1.997 3.137 2.936 5.133 2.097l15.449-6.488c1.997-.838 2.936-3.137 2.097-5.134l-4.238-10.092c3.908-2.926 7.417-6.44 10.382-10.479l10.13 4.138c2.005.819 4.294-.142 5.113-2.147l6.336-15.511c.819-2.005-.143-4.295-2.147-5.113z" fill="#465961"/></g></g></g></g></svg>