<?xml version="1.0"?>
<svg xmlns="http://www.w3.org/2000/svg" viewBox="0 0 64 64" width="512" height="512"><title>App-Development-application-Mobile-coding</title><g id="Flat"><rect x="7" y="7" width="44" height="46" rx="2" ry="2" style="fill:#56a8c6"/><path d="M51,9a2,2,0,0,0-2-2H9A2,2,0,0,0,7,9v6H51Z" style="fill:#0071bc"/><path d="M32,23H51a0,0,0,0,1,0,0V53a0,0,0,0,1,0,0H27a0,0,0,0,1,0,0V28A5,5,0,0,1,32,23Z" style="fill:#514d47;opacity:0.2"/><rect x="29" y="25" width="28" height="36" rx="3" ry="3" style="fill:#56a8c6"/><path d="M29,53v5a3,3,0,0,0,3,3H54a3,3,0,0,0,3-3V53Z" style="fill:#dfd9d3"/><rect x="42" y="56" width="2" height="2" style="fill:#b4b0aa"/><rect x="33" y="29" width="4" height="4" style="fill:#f7931e"/><rect x="41" y="29" width="4" height="4" style="fill:#f7931e"/><rect x="49" y="29" width="4" height="4" style="fill:#f7931e"/><rect x="33" y="37" width="4" height="4" style="fill:#f7931e"/><rect x="41" y="37" width="4" height="4" style="fill:#f7931e"/><rect x="49" y="37" width="4" height="4" style="fill:#f7931e"/><rect x="33" y="45" width="4" height="4" style="fill:#f7931e"/><rect x="41" y="45" width="4" height="4" style="fill:#f7931e"/><rect x="49" y="45" width="4" height="4" style="fill:#f7931e"/><rect x="14" y="18" width="24" height="2" style="fill:#80c5d4"/><rect x="10" y="18" width="2" height="2" style="fill:#80c5d4"/><rect x="14" y="22" width="4" height="2" style="fill:#80c5d4"/><rect x="20" y="22" width="6" height="2" style="fill:#80c5d4"/><rect x="10" y="22" width="2" height="2" style="fill:#80c5d4"/><rect x="14" y="26" width="10" height="2" style="fill:#80c5d4"/><rect x="10" y="26" width="2" height="2" style="fill:#80c5d4"/><rect x="14" y="30" width="8" height="2" style="fill:#80c5d4"/><rect x="10" y="30" width="2" height="2" style="fill:#80c5d4"/><rect x="14" y="34" width="11" height="2" style="fill:#80c5d4"/><rect x="10" y="34" width="2" height="2" style="fill:#80c5d4"/><rect x="14" y="48" width="2" height="2" style="fill:#80c5d4"/><rect x="18" y="48" width="2" height="2" style="fill:#80c5d4"/><rect x="10" y="48" width="2" height="2" style="fill:#80c5d4"/><rect x="14" y="40" width="6" height="2" style="fill:#80c5d4"/><rect x="10" y="40" width="2" height="2" style="fill:#80c5d4"/><rect x="14" y="44" width="11" height="2" style="fill:#80c5d4"/><rect x="10" y="44" width="2" height="2" style="fill:#80c5d4"/><rect x="45" y="18" width="3" height="2" style="fill:#80c5d4"/><rect x="40" y="18" width="3" height="2" style="fill:#80c5d4"/><rect x="22" y="40" width="3" height="2" style="fill:#80c5d4"/><rect x="60" y="37" width="2" height="21" style="fill:#dfd9d3"/><path d="M15,58H9a7.008,7.008,0,0,1-7-7V38H4V51a5.006,5.006,0,0,0,5,5h6Z" style="fill:#dfd9d3"/><rect x="2" y="34" width="2" height="2" style="fill:#dfd9d3"/><rect x="19" y="2" width="27" height="2" style="fill:#dfd9d3"/><rect x="10" y="10" width="2" height="2" style="fill:#da4836"/><rect x="14" y="10" width="2" height="2" style="fill:#f8cf26"/><rect x="18" y="10" width="2" height="2" style="fill:#3dbf50"/></g></svg>
