<svg height="496pt" viewBox="0 0 496 496" width="496pt" xmlns="http://www.w3.org/2000/svg" xmlns:xlink="http://www.w3.org/1999/xlink"><linearGradient id="a" gradientUnits="userSpaceOnUse" x1="248" x2="248" y1="0" y2="496"><stop offset=".0051" stop-color="#f5cc3a"/><stop offset=".5187" stop-color="#eb5edc"/><stop offset=".8858" stop-color="#db5ec8"/></linearGradient><path d="m445.71875 61.59375c3.128906 1.503906 6.585938 2.40625 10.28125 2.40625 13.230469 0 24-10.769531 24-24s-10.769531-24-24-24-24 10.769531-24 24c0 3.695312.902344 7.152344 2.40625 10.28125l-16.917969 16.917969c-44.375-41.632813-103.984375-67.199219-169.488281-67.199219-48.183594 0-94.769531 13.871094-134.960938 40h-81.039062c-17.648438 0-32 14.351562-32 32v352c0 17.648438 14.351562 32 32 32h80.9375c40.199219 26.160156 86.886719 40 135.0625 40 47.625 0 93.671875-13.585938 133.550781-39.136719l30.160157 30.160157c5.792968 5.792968 13.480468 8.976562 21.65625 8.976562 16.898437 0 30.632812-13.734375 30.632812-30.632812 0-8.175782-3.183594-15.871094-8.976562-21.65625l-26.152344-26.152344c43.296875-46.125 67.128906-106.085938 67.128906-169.558594 0-65.503906-25.566406-125.113281-67.199219-169.488281zm10.28125-29.59375c4.40625 0 8 3.59375 8 8s-3.59375 8-8 8-8-3.59375-8-8 3.59375-8 8-8zm-424 24h192c8.824219 0 16 7.175781 16 16v32h-224v-32c0-8.824219 7.175781-16 16-16zm272 224h-16v-112h16zm-48 0v16h79.59375c-4.027344 40.367188-38.1875 72-79.59375 72-44.113281 0-80-35.886719-80-80s35.886719-80 80-80c5.40625 0 10.742188.726562 16 1.792969v70.207031zm112 0h-16v-64h16zm-96-86.617188c-5.273438-.878906-10.617188-1.382812-16-1.382812-52.9375 0-96 43.0625-96 96s43.0625 96 96 96c50.230469 0 91.503906-38.808594 95.59375-88h16c-4.128906 58.023438-52.539062 104-111.59375 104-61.761719 0-112-50.238281-112-112s50.238281-112 112-112c5.367188 0 10.703125.519531 16 1.273438zm-144 94.617188c0 2.703125.238281 5.34375.40625 8h-80.40625v-80h102.257812c-14.027343 20.527344-22.257812 45.320312-22.257812 72zm35.289062-88h-131.289062v112h98.335938c1.039062 5.464844 2.441406 10.800781 4.152343 16h-102.488281v16h109.078125c5.777344 11.792969 13.265625 22.574219 22.210937 32h-147.289062v-256h224v41.113281c-30.046875 3.765625-56.847656 17.964844-76.710938 38.886719zm-147.289062 224v-32h165.664062c16.871094 12.097656 36.761719 20.183594 58.335938 22.886719v9.113281c0 8.824219-7.175781 16-16 16h-192c-8.824219 0-16-7.175781-16-16zm232 56c-35.878906 0-70.824219-8.320312-102.566406-24h78.566406c17.648438 0 32-14.351562 32-32v-8c24.199219 0 46.769531-6.871094 66.097656-18.59375l47.832032 47.832031c-36.609376 22.671875-78.554688 34.761719-121.929688 34.761719zm200-14.632812c0 8.074218-6.558594 14.632812-14.632812 14.632812-3.902344 0-7.574219-1.519531-10.34375-4.289062l-87.550782-87.550782c7.664063-6.089844 14.589844-13.023437 20.6875-20.6875l87.558594 87.558594c2.761719 2.761719 4.28125 6.433594 4.28125 10.335938zm32-217.367188c0 59.199219-22.167969 115.144531-62.441406 158.246094l-52.152344-52.148438c10.410156-17.167968 16.875-36.921875 18.1875-58.097656h80.40625v-16h-16v-128h-48v128h-16v-80h-48v80h-16v-128h-48v9.113281c-5.304688-.65625-10.640625-1.113281-16-1.113281v-88c0-17.648438-14.351562-32-32-32h-78.609375c31.753906-15.695312 66.6875-24 102.609375-24 61.089844 0 116.703125 23.777344 158.183594 62.503906l-19.894532 19.894532c-3.136718-1.496094-6.59375-2.398438-10.289062-2.398438-5.191406 0-9.96875 1.695312-13.894531 4.503906l-43.066407-30.144531c.5625-2.039063.960938-4.144531.960938-6.359375 0-13.230469-10.769531-24-24-24s-24 10.769531-24 24 10.769531 24 24 24c5.191406 0 9.96875-1.695312 13.894531-4.503906l43.066407 30.144531c-.5625 2.039063-.960938 4.144531-.960938 6.359375 0 13.230469 10.769531 24 24 24s24-10.769531 24-24c0-3.695312-.902344-7.152344-2.40625-10.28125l19.894531-19.894531c38.734375 41.472656 62.511719 97.085937 62.511719 158.175781zm-48 32h-16v-112h16zm-56-168c4.40625 0 8 3.59375 8 8s-3.59375 8-8 8-8-3.59375-8-8 3.59375-8 8-8zm-80-40c-4.40625 0-8-3.59375-8-8s3.59375-8 8-8 8 3.59375 8 8-3.59375 8-8 8zm-208 336h80v16h-80zm-40-256h-16v-16h16zm32 0h-16v-16h16zm32 0h-16v-16h16zm112-16v16h-96v-16zm-192 32h96v16h-96zm112 0h16v16h-16zm0 0" fill="url(#a)"/></svg>