<svg id="Capa_1" enable-background="new 0 0 512 512" height="512" viewBox="0 0 512 512" width="512" xmlns="http://www.w3.org/2000/svg"><g><path d="m497.001 432.161c-.014 0-.027 0-.041 0l-299.999-.802c-8.284-.022-14.982-6.756-14.96-15.04.022-8.27 6.734-14.96 14.999-14.96h.041l299.999.802c8.284.022 14.982 6.756 14.96 15.04-.022 8.27-6.734 14.96-14.999 14.96z" fill="#828282"/><path d="m496.84 492.161c-.014 0-.027 0-.041 0l-299.999-.802c-8.284-.022-14.982-6.756-14.96-15.04.022-8.27 6.734-14.96 14.999-14.96h.041l299.999.802c8.284.022 14.982 6.756 14.96 15.04-.022 8.27-6.734 14.96-14.999 14.96z" fill="#828282"/><g fill="#5a5a5a"><path d="m497.001 432.161c8.265 0 14.977-6.69 14.999-14.96.022-8.284-6.676-15.018-14.96-15.04l-150.04-.401v30l149.96.401z"/><path d="m496.879 462.161-149.879-.401v30l149.799.401h.041c8.265 0 14.977-6.69 14.999-14.96.022-8.284-6.675-15.018-14.96-15.04z"/></g><path d="m256.948 451.519c-.014 0-.027 0-.041 0-8.284-.022-14.982-6.756-14.96-15.04l.107-40c.022-8.284 6.734-14.959 15.04-14.96 8.284.022 14.982 6.756 14.96 15.04l-.107 40c-.022 8.271-6.734 14.96-14.999 14.96z" fill="#ff9f22"/><path d="m436.787 512c-.014 0-.027 0-.041 0-8.284-.022-14.982-6.756-14.96-15.04l.107-40c.022-8.271 6.734-14.96 14.999-14.96h.041c8.284.022 14.982 6.756 14.96 15.04l-.107 40c-.022 8.271-6.734 14.96-14.999 14.96z" fill="#ff6426"/><g><path d="m4.393 507.607c-5.858-5.858-5.858-15.355 0-21.213l191.792-191.792c5.858-5.858 15.355-5.858 21.213 0 5.858 5.858 5.858 15.355 0 21.213l-191.791 191.792c-5.858 5.858-15.356 5.858-21.214 0z" fill="#ebe1dc"/><path d="m14.998 512h.005c3.838-.001 7.676-1.465 10.604-4.393l191.792-191.792c5.858-5.858 5.858-15.355 0-21.213l-213.006 213.005c2.929 2.928 6.767 4.392 10.605 4.393z" fill="#dcd2cd"/><circle cx="327" cy="185" fill="#beebfa" r="170"/><path d="m327 355c93.888 0 170-76.112 170-170 0-46.944-19.028-89.444-49.792-120.208l-240.416 240.416c30.764 30.764 73.264 49.792 120.208 49.792z" fill="#7ed8f7"/><path d="m327 370c-102.009 0-185-82.991-185-185s82.991-185 185-185 185 82.991 185 185-82.991 185-185 185zm0-340c-85.467 0-155 69.533-155 155s69.533 155 155 155 155-69.533 155-155-69.533-155-155-155z" fill="#fff5f5"/><path d="m436.55 75.45c28.067 28.066 45.45 66.816 45.45 109.55 0 85.467-69.533 155-155 155-42.734 0-81.484-17.383-109.55-45.45l-21.203 21.203c33.498 33.499 79.748 54.247 130.753 54.247 102.009 0 185-82.991 185-185 0-51.005-20.748-97.255-54.247-130.753z" fill="#ebe1dc"/><path d="m443.513 203.193-10.56-6.097c.475-4.057.714-8.099.714-12.097s-.239-8.04-.714-12.097l10.56-6.097c3.446-1.989 5.959-5.266 6.989-9.108s.491-7.937-1.499-11.382l-27.5-47.632c-4.143-7.175-13.315-9.633-20.49-5.49l-10.607 6.124c-6.535-4.877-13.52-8.94-20.906-12.16v-12.157c0-8.284-6.716-15-15-15h-55c-8.284 0-15 6.716-15 15v12.158c-7.386 3.22-14.371 7.283-20.906 12.16l-10.607-6.124c-7.175-4.145-16.349-1.685-20.49 5.49l-27.5 47.632c-1.989 3.445-2.528 7.54-1.499 11.382s3.543 7.119 6.989 9.108l10.56 6.097c-.475 4.057-.714 8.099-.714 12.097s.239 8.04.714 12.097l-10.56 6.097c-3.446 1.989-5.959 5.266-6.989 9.108s-.491 7.937 1.499 11.382l27.5 47.632c1.989 3.445 5.265 5.959 9.108 6.989 3.843 1.028 7.937.49 11.382-1.499l10.607-6.125c6.535 4.877 13.521 8.94 20.906 12.16v12.159c0 8.284 6.716 15 15 15h55c8.284 0 15-6.716 15-15v-12.158c7.385-3.22 14.371-7.283 20.906-12.16l10.607 6.125c3.445 1.989 7.54 2.529 11.382 1.499 3.843-1.029 7.119-3.543 9.108-6.989l27.5-47.632c1.989-3.445 2.528-7.54 1.499-11.382s-3.544-7.12-6.989-9.11zm-116.513 26.807c-24.813 0-45-20.187-45-45s20.187-45 45-45 45 20.187 45 45-20.187 45-45 45z" fill="#828282"/><path d="m327 125c-33.084 0-60 26.916-60 60s26.916 60 60 60 60-26.916 60-60-26.916-60-60-60zm0 90c-16.569 0-30-13.431-30-30s13.431-30 30-30 30 13.431 30 30-13.431 30-30 30z" fill="#5a5a5a"/><path d="m443.513 203.193-10.56-6.097c.475-4.057.714-8.099.714-12.097s-.239-8.04-.714-12.097l10.56-6.097c3.446-1.989 5.959-5.266 6.989-9.108s.491-7.937-1.499-11.382l-27.5-47.632c-4.143-7.175-13.315-9.633-20.49-5.49l-10.607 6.124c-6.535-4.877-13.52-8.94-20.906-12.16v-12.157c0-8.284-6.716-15-15-15h-27.5v80c24.813 0 45 20.187 45 45s-20.187 45-45 45v80h27.5c8.284 0 15-6.716 15-15v-12.158c7.385-3.22 14.371-7.283 20.906-12.16l10.607 6.125c3.445 1.989 7.54 2.529 11.382 1.499 3.843-1.029 7.119-3.543 9.108-6.989l27.5-47.632c1.989-3.445 2.528-7.54 1.499-11.382s-3.544-7.12-6.989-9.11z" fill="#5a5a5a"/><path d="m327 125v30c16.569 0 30 13.431 30 30s-13.431 30-30 30v30c33.084 0 60-26.916 60-60s-26.916-60-60-60z" fill="#464141"/></g></g></svg>