<svg height="512pt" viewBox="-47 0 512 512" width="512pt" xmlns="http://www.w3.org/2000/svg"><path d="m160.890625 186.710938h-105.066406c-2.835938 0-5.15625 2.316406-5.15625 5.148437v91.367187c0 2.832032 2.320312 5.152344 5.15625 5.152344h105.066406zm0 0" fill="#fcdb67"/><path d="m160.890625 218.394531-27.4375 18.570313c-2.351563 1.589844-6.191406 1.589844-8.539063 0l-69.976562-47.363282c-2.347656-1.589843-4.269531-.574218-4.269531 2.261719v91.363281c0 2.835938 2.320312 5.152344 5.15625 5.152344h105.066406zm0 0" fill="#ffc502"/><path d="m107.6875 149.890625c0 2.835937-2.324219 5.152344-5.160156 5.152344h-97.371094c-2.835938 0-5.15625-2.316407-5.15625-5.152344v-59.414063c0-2.835937 2.320312-5.152343 5.15625-5.152343h97.371094c2.835937 0 5.15625 2.316406 5.15625 5.152343v59.414063zm0 0" fill="#046699"/><path d="m4.269531 88.214844c-2.347656-1.589844-4.269531-.574219-4.269531 2.261718v59.414063c0 2.835937 2.320312 5.152344 5.15625 5.152344h97.371094c2.835937 0 5.15625-2.316407 5.15625-5.152344v-59.414063c0-2.835937-1.917969-3.851562-4.269532-2.261718l-45.304687 30.664062c-2.347656 1.589844-6.1875 1.589844-8.539063 0zm0 0" fill="#0291c9"/><path d="m188.179688 50.195312c0 2.832032-2.320313 5.148438-5.15625 5.148438h-75.171876c-2.835937 0-5.15625-2.316406-5.15625-5.148438v-45.042968c0-2.835938 2.320313-5.152344 5.15625-5.152344h75.171876c2.835937 0 5.15625 2.316406 5.15625 5.152344zm0 0" fill="#368c0e"/><path d="m106.964844 2.890625c-2.351563-1.589844-4.269532-.570313-4.269532 2.261719v45.042968c0 2.832032 2.320313 5.148438 5.15625 5.148438h75.171876c2.835937 0 5.15625-2.316406 5.15625-5.148438v-45.042968c0-2.835938-1.921876-3.851563-4.269532-2.261719l-34.207031 23.148437c-2.347656 1.589844-6.1875 1.589844-8.539063 0zm0 0" fill="#89c947"/><path d="m322.023438 326.378906c-3.035157 0-7.4375 1.53125-9.8125 3.417969l-43.59375 34.574219c-.761719.601562-1.265626.691406-1.5.691406-.851563 0-.917969-1.421875-.917969-1.859375v-30.675781c0-3.390625-2.761719-6.148438-6.15625-6.148438h-25.339844c-2.292969 0-4.15625-1.863281-4.15625-4.152344v-134.21875c0-2.289062 1.863281-4.148437 4.15625-4.148437h131.007813v-65.746094c0-8.289062-6.808594-15.070312-15.136719-15.070312h-175.550781c-8.320313 0-15.132813 6.78125-15.132813 15.070312v378.816407c0 8.289062 6.8125 15.070312 15.132813 15.070312h175.554687c8.324219 0 15.132813-6.78125 15.132813-15.070312v-170.550782zm0 0" fill="#c7fffd"/><path d="m204.304688 122.953125c1.683593 5.269531 7.601562 9.578125 13.148437 9.578125h90.695313c5.550781 0 11.464843-4.308594 13.148437-9.578125l5.867187-18.375c.167969-.523437.386719-1.035156.632813-1.535156h-129.992187c.25.5.464843 1.011719.632812 1.535156zm0 0" fill="#9ea7af"/><path d="m159.890625 496.929688c0 8.289062 6.8125 15.070312 15.132813 15.070312h175.554687c8.324219 0 15.132813-6.78125 15.132813-15.070312v-32.144532h-205.820313zm0 0" fill="#9ea7af"/><path d="m278.777344 494.40625h-31.949219c-4.144531 0-7.5-3.355469-7.5-7.5 0-4.140625 3.355469-7.5 7.5-7.5h31.949219c4.140625 0 7.5 3.359375 7.5 7.5 0 4.144531-3.359375 7.5-7.5 7.5zm0 0" fill="#e6e9ed"/><path d="m417.605469 188.007812c0-2.832031-2.320313-5.148437-5.15625-5.148437h-177.746094c-2.835937 0-5.15625 2.316406-5.15625 5.148437v134.21875c0 2.835938 2.320313 5.152344 5.15625 5.152344h25.339844c2.835937 0 5.15625 2.316406 5.15625 5.148438v30.675781c0 2.835937 1.816406 3.710937 4.039062 1.949219l43.589844-34.570313c2.222656-1.761719 6.359375-3.203125 9.195313-3.203125h90.421874c2.835938 0 5.15625-2.316406 5.15625-5.152344v-134.21875zm0 0" fill="#ffc502"/><g fill="#775436"><path d="m382.980469 224.351562h-118.8125c-4.140625 0-7.5-3.355468-7.5-7.5 0-4.140624 3.359375-7.5 7.5-7.5h118.8125c4.144531 0 7.5 3.359376 7.5 7.5 0 4.144532-3.359375 7.5-7.5 7.5zm0 0"/><path d="m382.980469 250.085938h-118.8125c-4.140625 0-7.5-3.355469-7.5-7.5 0-4.144532 3.359375-7.5 7.5-7.5h118.8125c4.144531 0 7.5 3.355468 7.5 7.5 0 4.144531-3.359375 7.5-7.5 7.5zm0 0"/><path d="m382.980469 275.820312h-118.8125c-4.140625 0-7.5-3.355468-7.5-7.5 0-4.140624 3.359375-7.5 7.5-7.5h118.8125c4.144531 0 7.5 3.359376 7.5 7.5 0 4.144532-3.359375 7.5-7.5 7.5zm0 0"/><path d="m325.546875 301.554688h-61.378906c-4.140625 0-7.5-3.355469-7.5-7.5 0-4.144532 3.359375-7.5 7.5-7.5h61.378906c4.144531 0 7.5 3.355468 7.5 7.5 0 4.140624-3.355469 7.5-7.5 7.5zm0 0"/></g><path d="m223.613281 429.070312c0 2.832032-2.320312 5.152344-5.15625 5.152344h-22.6875c-2.835937 0-5.15625-2.320312-5.15625-5.152344v-22.664062c0-2.832031 2.320313-5.148438 5.15625-5.148438h22.6875c2.835938 0 5.15625 2.316407 5.15625 5.148438zm0 0" fill="#89c947"/><path d="m279.300781 429.070312c0 2.832032-2.320312 5.152344-5.15625 5.152344h-22.6875c-2.835937 0-5.15625-2.320312-5.15625-5.152344v-22.664062c0-2.832031 2.320313-5.148438 5.15625-5.148438h22.6875c2.835938 0 5.15625 2.316407 5.15625 5.148438zm0 0" fill="#0481bf"/><path d="m334.992188 429.070312c0 2.832032-2.320313 5.152344-5.15625 5.152344h-22.691407c-2.835937 0-5.15625-2.320312-5.15625-5.152344v-22.664062c0-2.832031 2.320313-5.148438 5.15625-5.148438h22.691407c2.835937 0 5.15625 2.316407 5.15625 5.148438zm0 0" fill="#fb8276"/><path d="m270.613281 125h-40.3125c-4.140625 0-7.5-3.355469-7.5-7.5s3.359375-7.5 7.5-7.5h40.3125c4.140625 0 7.5 3.355469 7.5 7.5s-3.359375 7.5-7.5 7.5zm0 0" fill="#e6e9ed"/><path d="m303.800781 117.5c0 4.140625-3.355469 7.5-7.5 7.5-4.140625 0-7.5-3.359375-7.5-7.5s3.359375-7.5 7.5-7.5c4.144531 0 7.5 3.359375 7.5 7.5zm0 0" fill="#e6e9ed"/></svg>