<svg id="Capa_1" enable-background="new 0 0 512 512" height="512" viewBox="0 0 512 512" width="512" xmlns="http://www.w3.org/2000/svg"><g><g><path d="m488.046 424.151v-330.555c0-11.442-9.276-20.718-20.718-20.718h-422.655c-11.442 0-20.718 9.276-20.718 20.718v330.555z" fill="#f8f7f7"/><path d="m50.736 396.164c-2.844 0-5.151-2.307-5.151-5.151v-318.14h-.917c-11.435 0-20.717 9.282-20.717 20.727v330.554h464.097v-27.99z" fill="#e8e8e8"/><g><path d="m488.046 431.878h-464.092c-4.267 0-7.726-3.459-7.726-7.726v-330.556c0-15.685 12.76-28.444 28.444-28.444h422.654c15.685 0 28.444 12.76 28.444 28.444v330.555c.003 4.267-3.457 7.727-7.724 7.727zm-456.366-15.453h448.639v-322.829c0-7.164-5.828-12.992-12.992-12.992h-422.654c-7.164 0-12.992 5.828-12.992 12.992v322.829z" fill="#8e868e"/></g><path d="m10.765 411.617 1.545-1.03h201.73l42.474 2.06 42.474-2.06h202.245c7.148 0 12.309 6.842 10.344 13.716l-.002.007c-.721 2.522-1.742 4.896-3.016 7.088-5.468 9.4-16.644 14.417-27.894 14.417h-450.362c-13.878 0-25.043-8.17-28.853-21.515-1.962-6.873 2.168-12.683 9.315-12.683z" fill="#9e959e"/><path d="m298.989 410.587v20.81l-1.03 14.422h-82.888l-1.03-14.422v-20.81z" fill="#8e868e"/><path d="m508.559 431.397c-5.46 9.406-15.618 15.453-26.867 15.453h-182.703l-42.989-1.031-41.959 1.03h-183.733c-13.887 0-26.074-9.21-29.886-22.551-.288-.999-.422-1.998-.422-2.977 0-5.738 4.656-10.735 10.765-10.735h1.545c4.337 12.393 11.643 20.81 27.269 20.81h174.461l41.959 1.03 42.989-1.03z" fill="#8e868e"/><path d="m214.041 431.397h84.949v15.453h-84.949z" fill="#766d78"/></g><g><path d="m171.01 346.447h-78.809c-4.267 0-7.726-3.458-7.726-7.726s3.459-7.726 7.726-7.726h78.809c4.267 0 7.726 3.458 7.726 7.726 0 4.267-3.459 7.726-7.726 7.726z" fill="#e8e8e8"/></g><g><path d="m418.769 315.541h-28.253c-4.267 0-7.726-3.458-7.726-7.726s3.459-7.726 7.726-7.726h28.253c4.267 0 7.726 3.458 7.726 7.726s-3.459 7.726-7.726 7.726z" fill="#e8e8e8"/></g><g><path d="m359.61 315.541h-267.409c-4.267 0-7.726-3.458-7.726-7.726s3.459-7.726 7.726-7.726h267.409c4.267 0 7.726 3.458 7.726 7.726.001 4.268-3.459 7.726-7.726 7.726z" fill="#e8e8e8"/></g><g><path d="m408.982 284.636h-316.781c-4.267 0-7.726-3.458-7.726-7.726s3.459-7.726 7.726-7.726h316.781c4.267 0 7.726 3.458 7.726 7.726s-3.459 7.726-7.726 7.726z" fill="#e8e8e8"/></g><g><path d="m418.769 253.731h-269.185c-4.267 0-7.726-3.458-7.726-7.726s3.459-7.726 7.726-7.726h269.184c4.267 0 7.726 3.458 7.726 7.726.001 4.267-3.458 7.726-7.725 7.726z" fill="#e8e8e8"/></g><g><path d="m118.679 253.731h-26.478c-4.267 0-7.726-3.458-7.726-7.726s3.459-7.726 7.726-7.726h26.478c4.267 0 7.726 3.458 7.726 7.726 0 4.267-3.459 7.726-7.726 7.726z" fill="#e8e8e8"/></g><g><path d="m372.504 222.825h-280.303c-4.267 0-7.726-3.458-7.726-7.726s3.459-7.726 7.726-7.726h280.303c4.267 0 7.726 3.458 7.726 7.726s-3.459 7.726-7.726 7.726z" fill="#e8e8e8"/></g><g><path d="m418.769 191.92h-171.865c-4.267 0-7.726-3.458-7.726-7.726s3.459-7.726 7.726-7.726h171.865c4.267 0 7.726 3.458 7.726 7.726 0 4.267-3.459 7.726-7.726 7.726z" fill="#e8e8e8"/></g><g><path d="m215.998 191.92h-92.891c-4.267 0-7.726-3.458-7.726-7.726s3.459-7.726 7.726-7.726h92.891c4.267 0 7.726 3.458 7.726 7.726 0 4.267-3.458 7.726-7.726 7.726z" fill="#e8e8e8"/></g><g><path d="m310.085 140.411h-109.2c-4.267 0-7.726-3.458-7.726-7.726s3.459-7.726 7.726-7.726h109.199c4.267 0 7.726 3.458 7.726 7.726.001 4.266-3.458 7.726-7.725 7.726z" fill="#e8e8e8"/></g><g><path d="m389.162 216.605-95.343 95.343c-1.246 1.247-2.596 2.39-4.038 3.41l-13.139-10.048-8.67-11.761 99.062-99.072z" fill="#ccf49f"/><path d="m372.504 199.947-17.401-17.769-9.652-8.254-94.303 94.313c-1.247 1.247-2.39 2.596-3.42 4.038l12.145 15.235 13.558 11.498z" fill="#b3e59f"/><path d="m289.785 315.358c-1.391.999-2.874 1.875-4.43 2.637l-24.59 12.053-15.444-12.354-12.267-16.388 11.013-23.571c.762-1.556 1.638-3.039 2.637-4.43l9.857 8.827z" fill="#f2d1a5"/><path d="m260.765 330.048-36.996 18.116-.431-.819c-1.01.495-2.102.731-3.173.731-1.875 0-2.689.309-4.069-1.082-2.174-2.174-2.73-4.471-1.38-7.232l17.307-37.426 9.867 8.837z" fill="#9e959e"/><path d="m355.31 182.753-95.292 95.292c-1.247 1.247-2.39 2.596-3.42 4.038-.01.021-.021.031-.041.051l-5.596-4.566-4.263-5.293c1.03-1.442 2.174-2.792 3.42-4.038l95.333-95.343 5.731 4.701z" fill="#95d6a4"/><path d="m256.557 282.135c-.979 1.37-1.844 2.843-2.596 4.378l-12.043 24.601-.031.062-5.422-3.361-4.447-6.508 12.043-24.601c.762-1.556 1.638-3.039 2.637-4.43z" fill="#f2bb88"/><path d="m241.888 311.175-18.121 36.983-.433.216c-1.01.495-2.102.731-3.173.731-1.875 0-3.719-.721-5.099-2.112-2.174-2.174-2.73-5.501-1.38-8.262l18.337-37.426z" fill="#8e868e"/><path d="m432.913 170.247-23.398-18.248-18.248-23.398 16.09-17.121c5.64-5.64 15.586-8.069 21.653-3.167.424.343.835.712 1.23 1.106l21.853 21.853c6.035 6.035 6.035 15.818 0 21.853l-8.981 8.981z" fill="#ffd163"/><path d="m443.113 162.108-10.199 10.199-23.4-20.309-20.311-23.402 19.182-19.182c5.645-5.635 14.567-6.006 20.624-1.102l-17.318 18.1c-1.162 1.215-1.14 3.134.047 4.322z" fill="#ffb65f"/><path d="m387.158 215.147-32.126-32.126-7.637-8.667c-4.827-4.827-4.827-12.655 0-17.483l25.922-25.922c4.827-4.827 12.655-4.827 17.483 0l8.672 7.642 32.121 32.121c4.827 4.827 4.827 12.655 0 17.483l-26.953 26.953c-4.827 4.828-12.654 4.828-17.482-.001z" fill="#9e959e"/><path d="m399.474 138.589-16.758 16.754-6.444 4.381-4.485 6.544-16.756 16.752-8.664-8.664c-4.832-4.832-4.832-12.661 0-17.482l26.95-26.96c4.832-4.821 12.651-4.821 17.482 0z" fill="#8e868e"/><g><path d="m418.117 209.398c-1.977 0-3.955-.754-5.464-2.263l-40.866-40.866-16.379-17.409c-3.017-3.017-3.017-6.88 0-9.896 3.018-3.017 6.88-3.017 9.897 0l17.408 16.378 40.867 40.867c3.017 3.017 3.017 7.91 0 10.926-1.509 1.508-3.487 2.263-5.463 2.263z" fill="#8e868e"/></g><g><path d="m382.713 155.34-10.93 10.93-17.41-17.41c-3.008-3.018-3.008-7.912 0-10.93 3.018-3.018 7.912-3.018 10.93 0z" fill="#766d78"/></g></g></g></svg>